<svg width="15" height="17" viewBox="0 0 15 17" fill="none" xmlns="http://www.w3.org/2000/svg">
<path d="M13.1777 14.875V5.67773H1.82227V14.875H13.1777ZM13.1777 2.125C13.554 2.125 13.875 2.26888 14.1406 2.55664C14.4284 2.8444 14.5723 3.17643 14.5723 3.55273V14.875C14.5723 15.2513 14.4284 15.5833 14.1406 15.8711C13.875 16.1589 13.554 16.3027 13.1777 16.3027H1.82227C1.44596 16.3027 1.11393 16.1589 0.826172 15.8711C0.560547 15.5833 0.427734 15.2513 0.427734 14.875V3.55273C0.427734 3.17643 0.560547 2.8444 0.826172 2.55664C1.11393 2.26888 1.44596 2.125 1.82227 2.125H2.55273V0.697266H3.94727V2.125H11.0527V0.697266H12.4473V2.125H13.1777Z" fill="#0B2D65"/>
</svg>
