<svg width="18" height="20" viewBox="0 0 18 20" fill="none" xmlns="http://www.w3.org/2000/svg">
<path d="M15.4023 17.4023V7.34766H2.59766V17.4023H15.4023ZM12.6523 0.902344H14.5V2.75H15.4023C15.8893 2.75 16.319 2.9362 16.6914 3.30859C17.0638 3.68099 17.25 4.11068 17.25 4.59766V17.4023C17.25 17.8893 17.0638 18.319 16.6914 18.6914C16.319 19.0638 15.8893 19.25 15.4023 19.25H2.59766C2.08203 19.25 1.63802 19.0781 1.26562 18.7344C0.921875 18.362 0.75 17.918 0.75 17.4023V4.59766C0.75 4.11068 0.921875 3.68099 1.26562 3.30859C1.63802 2.9362 2.08203 2.75 2.59766 2.75H3.5V0.902344H5.34766V2.75H12.6523V0.902344ZM13.5977 11V15.5977H9V11H13.5977Z" fill="white"/>
</svg>
