<svg width="20" height="18" viewBox="0 0 20 18" fill="none" xmlns="http://www.w3.org/2000/svg">
<path d="M17.3477 0.75C17.8346 0.75 18.25 0.936198 18.5938 1.30859C18.9661 1.65234 19.1523 2.08203 19.1523 2.59766V15.4023C19.1523 15.918 18.9661 16.362 18.5938 16.7344C18.25 17.0781 17.8346 17.25 17.3477 17.25H2.65234C2.16536 17.25 1.73568 17.0781 1.36328 16.7344C1.01953 16.362 0.847656 15.918 0.847656 15.4023V2.59766C0.847656 2.08203 1.01953 1.65234 1.36328 1.30859C1.73568 0.936198 2.16536 0.75 2.65234 0.75H17.3477ZM8.15234 13.5977V11.75H3.59766V13.5977H8.15234ZM8.15234 9.90234V8.09766H3.59766V9.90234H8.15234ZM8.15234 6.25V4.40234H3.59766V6.25H8.15234ZM12.5781 11.75L16.7891 7.53906L15.5 6.25L12.5781 9.17188L11.2891 7.83984L10 9.12891L12.5781 11.75Z" fill="white"/>
</svg>
