<svg width="163" height="46" viewBox="0 0 163 46" fill="none" xmlns="http://www.w3.org/2000/svg">
<path d="M16.4472 45.591C7.37841 45.591 0 38.2126 0 29.1438V26.3289H8.18202V29.1438C8.18202 33.7015 11.8895 37.409 16.4472 37.409C21.0049 37.409 24.7123 33.7015 24.7123 29.1438V13.8021H17.3864V5.62012H32.8944V29.1438C32.8944 38.2126 25.516 45.591 16.4472 45.591Z" fill="#F9FBFD"/>
<path d="M53.1737 5.61913C44.105 5.61913 36.7266 12.9975 36.7266 22.0663V37.6676H44.9086V22.0663C44.9086 17.5086 48.616 13.8012 53.1737 13.8012C53.3225 13.8012 53.4713 13.8055 53.6186 13.8128V5.62934C53.4698 5.62497 53.3225 5.61768 53.1737 5.61768V5.61913Z" fill="#F9FBFD"/>
<path d="M88.4559 37.6686H80.2739V22.0673C80.2739 17.5096 76.5664 13.8021 72.0087 13.8021C67.451 13.8021 63.7435 17.5096 63.7435 22.0673V37.6686H55.5615V22.0673C55.5615 12.9985 62.9399 5.62012 72.0087 5.62012C81.0775 5.62012 88.4559 12.9985 88.4559 22.0673V37.6686Z" fill="#F9FBFD"/>
<path d="M113.169 37.6686H104.987V22.0673C104.987 17.5096 101.279 13.8021 96.7216 13.8021C92.1639 13.8021 88.4564 17.5096 88.4564 22.0673V37.6686H80.2744V22.0673C80.2744 12.9985 87.6528 5.62012 96.7216 5.62012C105.79 5.62012 113.169 12.9985 113.169 22.0673V37.6686Z" fill="#F9FBFD"/>
<path d="M141.839 3.78003C146.611 3.78003 151.096 5.63812 154.469 9.01156C157.842 12.385 159.701 16.8713 159.701 21.6434C159.701 26.4155 157.842 30.9003 154.469 34.2752C151.096 37.6486 146.609 39.5067 141.837 39.5067C137.065 39.5067 132.58 37.6486 129.205 34.2752C125.832 30.9018 123.974 26.4155 123.974 21.6434C123.974 16.8713 125.832 12.3865 129.205 9.01302C132.579 5.63958 137.065 3.78148 141.837 3.78148M141.837 0.482422C130.149 0.482422 120.675 9.95665 120.675 21.6448C120.675 33.333 130.149 42.8073 141.837 42.8073C153.525 42.8073 163 33.333 163 21.6448C163 9.95665 153.525 0.482422 141.837 0.482422Z" fill="#FF603B"/>
<path d="M141.839 9.13291C148.738 9.13291 154.35 14.7451 154.35 21.6437C154.35 28.5422 148.738 34.1544 141.839 34.1544C134.94 34.1544 129.328 28.5422 129.328 21.6437C129.328 14.7451 134.94 9.13291 141.839 9.13291ZM141.839 6.80957C133.647 6.80957 127.005 13.4514 127.005 21.6437C127.005 29.8359 133.647 36.4778 141.839 36.4778C150.031 36.4778 156.673 29.8359 156.673 21.6437C156.673 13.4514 150.031 6.80957 141.839 6.80957Z" fill="#FF603B"/>
<path d="M141.84 14.2669C145.907 14.2669 149.217 17.5761 149.217 21.6438C149.217 25.7115 145.907 29.0208 141.84 29.0208C137.772 29.0208 134.463 25.7115 134.463 21.6438C134.463 17.5761 137.772 14.2669 141.84 14.2669ZM141.84 13.1001C137.121 13.1001 133.296 16.9257 133.296 21.6438C133.296 26.362 137.121 30.1875 141.84 30.1875C146.558 30.1875 150.383 26.362 150.383 21.6438C150.383 16.9257 146.558 13.1001 141.84 13.1001Z" fill="#FF603B"/>
</svg>
