<svg width="14" height="16" viewBox="0 0 14 16" fill="none" xmlns="http://www.w3.org/2000/svg">
<path d="M11.5 10.9883L13.0117 12.5V13.2383H0.988281V12.5L2.5 10.9883V7.26172C2.5 6.08984 2.79297 5.07031 3.37891 4.20312C3.98828 3.33594 4.82031 2.77344 5.875 2.51562V1.98828C5.875 1.68359 5.98047 1.42578 6.19141 1.21484C6.40234 0.980469 6.67188 0.863281 7 0.863281C7.32812 0.863281 7.59766 0.980469 7.80859 1.21484C8.01953 1.42578 8.125 1.68359 8.125 1.98828V2.51562C9.17969 2.77344 10 3.33594 10.5859 4.20312C11.1953 5.07031 11.5 6.08984 11.5 7.26172V10.9883ZM7 15.4883C6.57812 15.4883 6.21484 15.3477 5.91016 15.0664C5.62891 14.7852 5.48828 14.4336 5.48828 14.0117H8.51172C8.51172 14.4102 8.35938 14.7617 8.05469 15.0664C7.75 15.3477 7.39844 15.4883 7 15.4883Z" fill="#0B2D65"/>
</svg>
